HIERARCHY
ROOT Hips
{
	OFFSET 0.000000 35.082581 0.000000
	CHANNELS 6 Xposition Yposition Zposition Xrotation Yrotation Zrotation 
	JOINT Spine
	{
		OFFSET 0.000000 6.876099 0.125700
		CHANNELS 3 Xrotation Yrotation Zrotation
		JOINT Spine1
		{
			OFFSET 0.000000 5.730043 0.104720
			CHANNELS 3 Xrotation Yrotation Zrotation
			JOINT Spine1_split
			{
				OFFSET 0.000000 5.730043 0.104720
				CHANNELS 3 Xrotation Yrotation Zrotation
				JOINT Spine2
				{
					OFFSET 0.000000 5.730043 0.104720
					CHANNELS 3 Xrotation Yrotation Zrotation
					JOINT Neck
					{
						OFFSET 0.000000 10.314075 0.188496
						CHANNELS 3 Xrotation Yrotation Zrotation
						JOINT Head
						{
							OFFSET 0.000000 7.643700 -2.377400
							CHANNELS 3 Xrotation Yrotation Zrotation
							JOINT HeadTop_End
							{
								OFFSET 0.000000 43.788605 -13.619600
								CHANNELS 3 Xrotation Yrotation Zrotation
								End Site
								{
									OFFSET 0.000000 0.000000 0.000000
								}
							}
						}
					}
					JOINT LeftShoulder
					{
						OFFSET 2.196100 4.412489 0.087492
						CHANNELS 3 Xrotation Yrotation Zrotation
						JOINT LeftShoulder_split
						{
							OFFSET 2.196100 4.412489 0.087492
							CHANNELS 3 Xrotation Yrotation Zrotation
							JOINT LeftArm
							{
								OFFSET 8.771219 -2.981674 -0.026999
								CHANNELS 3 Xrotation Yrotation Zrotation
								JOINT LeftForeArm
								{
									OFFSET 8.512804 0.000000 -0.000000
									CHANNELS 3 Xrotation Yrotation Zrotation
									JOINT LeftHand
									{
										OFFSET 18.484802 0.000000 -0.000000
										CHANNELS 3 Xrotation Yrotation Zrotation
										JOINT LeftHandThumb1
										{
											OFFSET 2.499420 -1.158070 2.653252
											CHANNELS 3 Xrotation Yrotation Zrotation
											JOINT LeftHandThumb2
											{
												OFFSET 2.370079 -1.368366 1.368366
												CHANNELS 3 Xrotation Yrotation Zrotation
												JOINT LeftHandThumb3
												{
													OFFSET 2.676727 -1.545410 1.545409
													CHANNELS 3 Xrotation Yrotation Zrotation
													JOINT LeftHandThumb4
													{
														OFFSET 1.692226 -0.977005 0.977007
														CHANNELS 3 Xrotation Yrotation Zrotation
														End Site
														{
															OFFSET 0.000000 0.000000 0.000000
														}
													}
												}
											}
										}
										JOINT LeftHandIndex1
										{
											OFFSET 7.924831 -0.457527 2.345128
											CHANNELS 3 Xrotation Yrotation Zrotation
											JOINT LeftHandIndex2
											{
												OFFSET 3.643303 0.000000 0.000000
												CHANNELS 3 Xrotation Yrotation Zrotation
												JOINT LeftHandIndex3
												{
													OFFSET 3.810799 0.000000 0.000000
													CHANNELS 3 Xrotation Yrotation Zrotation
													JOINT LeftHandIndex4
													{
														OFFSET 2.403702 0.000000 0.000000
														CHANNELS 3 Xrotation Yrotation Zrotation
														End Site
														{
															OFFSET 0.000000 0.000000 0.000000
														}
													}
												}
											}
										}
										JOINT LeftHandMiddle1
										{
											OFFSET 8.563995 0.000000 -0.000000
											CHANNELS 3 Xrotation Yrotation Zrotation
											JOINT LeftHandMiddle2
											{
												OFFSET 3.861618 0.000000 0.000000
												CHANNELS 3 Xrotation Yrotation Zrotation
												JOINT LeftHandMiddle3
												{
													OFFSET 3.701603 0.000000 0.000000
													CHANNELS 3 Xrotation Yrotation Zrotation
													JOINT LeftHandMiddle4
													{
														OFFSET 2.322544 0.000000 0.000000
														CHANNELS 3 Xrotation Yrotation Zrotation
														End Site
														{
															OFFSET 0.000000 0.000000 0.000000
														}
													}
												}
											}
										}
										JOINT LeftHandRing1
										{
											OFFSET 8.426460 -0.424637 -3.286992
											CHANNELS 3 Xrotation Yrotation Zrotation
											JOINT LeftHandRing2
											{
												OFFSET 3.126408 0.000000 0.000000
												CHANNELS 3 Xrotation Yrotation Zrotation
												JOINT LeftHandRing3
												{
													OFFSET 3.085026 0.000000 0.000000
													CHANNELS 3 Xrotation Yrotation Zrotation
													JOINT LeftHandRing4
													{
														OFFSET 1.644005 0.000000 0.000000
														CHANNELS 3 Xrotation Yrotation Zrotation
														End Site
														{
															OFFSET 0.000000 0.000000 0.000000
														}
													}
												}
											}
										}
									}
								}
							}
						}
					}
					JOINT RightShoulder
					{
						OFFSET -2.196100 4.412496 0.070690
						CHANNELS 3 Xrotation Yrotation Zrotation
						JOINT RightShoulder_split
						{
							OFFSET -2.196100 4.412496 0.070690
							CHANNELS 3 Xrotation Yrotation Zrotation
							JOINT RightArm
							{
								OFFSET -8.771282 -2.981682 -0.094208
								CHANNELS 3 Xrotation Yrotation Zrotation
								JOINT RightForeArm
								{
									OFFSET -8.494598 0.000000 0.000000
									CHANNELS 3 Xrotation Yrotation Zrotation
									JOINT RightHand
									{
										OFFSET -18.483803 0.000000 0.000001
										CHANNELS 3 Xrotation Yrotation Zrotation
										JOINT RightHandThumb1
										{
											OFFSET -2.527351 -1.008072 2.575253
											CHANNELS 3 Xrotation Yrotation Zrotation
											JOINT RightHandThumb2
											{
												OFFSET -2.321518 -1.340328 1.340329
												CHANNELS 3 Xrotation Yrotation Zrotation
												JOINT RightHandThumb3
												{
													OFFSET -2.657753 -1.534454 1.534455
													CHANNELS 3 Xrotation Yrotation Zrotation
													JOINT RightHandThumb4
													{
														OFFSET -1.807510 -1.043568 1.043567
														CHANNELS 3 Xrotation Yrotation Zrotation
														End Site
														{
															OFFSET 0.000000 0.000000 0.000000
														}
													}
												}
											}
										}
										JOINT RightHandIndex1
										{
											OFFSET -8.811420 0.015533 2.887987
											CHANNELS 3 Xrotation Yrotation Zrotation
											JOINT RightHandIndex2
											{
												OFFSET -3.537502 0.000000 0.000000
												CHANNELS 3 Xrotation Yrotation Zrotation
												JOINT RightHandIndex3
												{
													OFFSET -3.356201 0.000000 0.000000
													CHANNELS 3 Xrotation Yrotation Zrotation
													JOINT RightHandIndex4
													{
														OFFSET -1.933098 0.000000 0.000000
														CHANNELS 3 Xrotation Yrotation Zrotation
														End Site
														{
															OFFSET 0.000000 0.000000 0.000000
														}
													}
												}
											}
										}
										JOINT RightHandMiddle1
										{
											OFFSET -8.178135 0.000000 0.000000
											CHANNELS 3 Xrotation Yrotation Zrotation
											JOINT RightHandMiddle2
											{
												OFFSET -3.901302 0.000000 0.000000
												CHANNELS 3 Xrotation Yrotation Zrotation
												JOINT RightHandMiddle3
												{
													OFFSET -3.909599 0.000000 0.000000
													CHANNELS 3 Xrotation Yrotation Zrotation
													JOINT RightHandMiddle4
													{
														OFFSET -2.376003 0.000000 0.000000
														CHANNELS 3 Xrotation Yrotation Zrotation
														End Site
														{
															OFFSET 0.000000 0.000000 0.000000
														}
													}
												}
											}
										}
										JOINT RightHandRing1
										{
											OFFSET -7.559013 0.014137 -2.865403
											CHANNELS 3 Xrotation Yrotation Zrotation
											JOINT RightHandRing2
											{
												OFFSET -3.449306 0.000000 0.000000
												CHANNELS 3 Xrotation Yrotation Zrotation
												JOINT RightHandRing3
												{
													OFFSET -3.362106 0.000000 0.000000
													CHANNELS 3 Xrotation Yrotation Zrotation
													JOINT RightHandRing4
													{
														OFFSET -2.076401 0.000000 0.000000
														CHANNELS 3 Xrotation Yrotation Zrotation
														End Site
														{
															OFFSET 0.000000 0.000000 0.000000
														}
													}
												}
											}
										}
									}
								}
							}
						}
					}
				}
			}
		}
	}
	JOINT LeftUpLeg
	{
		OFFSET 10.205400 -3.823500 0.155100
		CHANNELS 3 Xrotation Yrotation Zrotation
		JOINT LeftLeg
		{
			OFFSET 0.708757 -12.982077 0.567790
			CHANNELS 3 Xrotation Yrotation Zrotation
			JOINT LeftFoot
			{
				OFFSET -0.708756 -10.717838 -2.184338
				CHANNELS 3 Xrotation Yrotation Zrotation
				JOINT LeftToeBase
				{
					OFFSET 0.108149 -7.191104 7.560241
					CHANNELS 3 Xrotation Yrotation Zrotation
					JOINT LeftToe_End
					{
						OFFSET 0.070230 0.081724 4.490308
						CHANNELS 3 Xrotation Yrotation Zrotation
						End Site
						{
							OFFSET 0.000000 0.000000 0.000000
						}
					}
				}
			}
		}
	}
	JOINT RightUpLeg
	{
		OFFSET -10.205400 -3.823500 0.005500
		CHANNELS 3 Xrotation Yrotation Zrotation
		JOINT RightLeg
		{
			OFFSET -0.708756 -12.982134 0.610632
			CHANNELS 3 Xrotation Yrotation Zrotation
			JOINT RightFoot
			{
				OFFSET 0.708754 -10.717769 -1.945823
				CHANNELS 3 Xrotation Yrotation Zrotation
				JOINT RightToeBase
				{
					OFFSET -0.108140 -7.191069 7.372968
					CHANNELS 3 Xrotation Yrotation Zrotation
					JOINT RightToe_End
					{
						OFFSET -0.070227 0.081735 4.479403
						CHANNELS 3 Xrotation Yrotation Zrotation
						End Site
						{
							OFFSET 0.000000 0.000000 0.000000
						}
					}
				}
			}
		}
	}
}
MOTION
Frames: 4
Frame Time: 0.016667
0.089510 31.646015 19.021767 10.280029 -5.253917 0.037343 5.319778 0.209051 -1.186528 2.188030 -0.566218 -0.158978 0.000000 0.000000 0.000000 0.272737 -0.972617 0.898068 12.585919 -0.308784 2.188553 -30.323021 0.842205 -5.312839 -0.000000 0.000000 -0.000000 5.876927 -7.979694 20.002224 0.000000 0.000000 0.000000 -34.254686 -16.965589 -14.997625 -0.000003 -124.447536 -0.000001 -1.398400 -13.673596 39.579508 28.620016 -24.676676 7.683739 13.196493 30.099356 -41.312058 -17.405866 27.733874 25.698891 0.000001 0.000003 -0.000002 3.052578 -0.236003 -15.996342 0.004172 0.221369 -2.160734 1.078588 3.388952 -35.300279 -0.000000 0.000000 -0.000000 0.872758 5.500597 -21.877301 0.087918 1.012250 -9.928499 0.940789 3.185755 -32.897548 0.000001 0.000001 -0.000001 1.472000 7.478244 -18.525754 0.300203 1.853022 -18.403441 0.758645 2.885161 -29.459040 -0.000000 0.000000 -0.000002 -1.569648 -8.377651 -14.965194 0.000000 0.000000 0.000000 -29.516140 36.059922 26.253343 -0.000007 121.356356 -0.000004 1.490555 12.183657 -43.921207 27.217074 26.328168 -7.221383 12.620653 -31.646397 39.727717 -15.731333 -33.858170 -24.893280 -0.000001 0.000002 0.000005 3.344723 0.259450 17.143657 0.003478 -0.180147 2.211972 0.860073 -2.698506 35.350744 -0.000001 0.000000 -0.000001 0.921716 -5.175096 25.205490 0.070802 -0.809849 9.992540 0.770283 -2.567390 33.396545 0.000001 0.000001 -0.000000 1.333965 -6.500124 20.818253 0.269528 -1.562850 19.567770 0.649072 -2.373507 30.584955 -0.000000 -0.000003 0.000000 -29.268105 4.167603 20.358361 43.769147 4.821242 -0.702215 -22.405527 0.111506 -18.125089 -0.109843 -0.000001 -0.000003 0.000000 -0.000001 0.000000 -36.062221 -0.781086 -9.575556 46.061180 3.486962 -4.188949 -18.105537 -14.091039 12.741884 1.031058 -0.000007 -0.000000 0.000000 0.000001 -0.000000 
0.069302 31.901894 19.152683 10.556093 -5.071853 0.035129 5.189570 0.201542 -1.162456 1.911440 -0.569145 -0.186931 0.000000 0.000000 0.000000 -0.161180 -0.970425 0.868121 12.453098 -0.296590 2.274848 -29.759930 0.843135 -5.284013 0.000000 0.000000 0.000000 5.875353 -8.055288 20.055975 0.000000 0.000000 0.000000 -34.142579 -16.790065 -15.375135 0.000007 -124.460090 0.000002 -2.606259 -13.888115 39.182521 28.761462 -24.766939 7.719538 13.199937 30.105148 -41.441247 -17.401992 27.682965 25.682713 -0.000003 -0.000003 -0.000000 3.069565 -0.215141 -16.039861 0.003678 0.207611 -2.026413 1.076566 3.386096 -35.266111 -0.000000 -0.000001 0.000000 0.875027 5.503075 -21.943376 0.082614 0.981403 -9.622830 0.940112 3.184699 -32.885455 0.000000 0.000000 0.000002 1.474891 7.486891 -18.524902 0.296687 1.842406 -18.294108 0.756985 2.882235 -29.426091 0.000000 -0.000000 -0.000001 -1.577468 -8.399914 -14.977688 0.000000 0.000000 0.000000 -29.040810 36.106337 26.125873 -0.000011 121.325552 -0.000016 0.621396 13.275616 -43.722438 27.195556 26.336455 -7.211336 12.611112 -31.646606 39.702397 -15.700551 -33.857968 -24.842281 -0.000000 0.000003 -0.000003 3.355503 0.248060 17.203469 0.003512 -0.180923 2.221362 0.860261 -2.698771 35.354808 0.000000 0.000002 -0.000001 0.928107 -5.183135 25.338450 0.071168 -0.811957 10.018990 0.771296 -2.568903 33.418883 0.000001 0.000001 -0.000000 1.330931 -6.479232 20.917193 0.270819 -1.566477 19.615171 0.650938 -2.376655 30.629860 -0.000000 0.000000 -0.000001 -28.278368 4.586718 20.181081 41.061769 4.956620 -0.815630 -21.091424 -0.187750 -17.923181 -0.109850 0.000000 -0.000001 0.000000 -0.000002 -0.000000 -34.781331 -0.993393 -9.477111 43.554057 3.180161 -4.145068 -17.131467 -13.994613 12.806808 1.021053 -0.000009 -0.000002 0.000000 -0.000002 -0.000000 
0.050049 32.132393 19.268633 10.795048 -4.878906 0.025515 5.077533 0.195500 -1.133190 1.666085 -0.571975 -0.208916 0.000000 0.000000 0.000000 -0.559324 -0.968294 0.843850 12.301277 -0.295255 2.357713 -29.149553 0.800226 -5.276033 -0.000000 -0.000000 -0.000000 5.878848 -8.060535 20.101149 0.000000 0.000000 0.000000 -33.982233 -16.856642 -15.686672 0.000011 -124.387594 0.000021 -3.851815 -13.938201 39.134061 28.792611 -24.793655 7.783942 13.167950 30.092977 -41.468910 -17.377193 27.661890 25.629445 -0.000001 0.000001 0.000002 3.081273 -0.191191 -16.120744 0.003513 0.203380 -1.985204 1.076517 3.386041 -35.265134 0.000000 0.000000 -0.000000 0.878235 5.506987 -22.027381 0.078929 0.959453 -9.405678 0.939787 3.184206 -32.879595 0.000000 -0.000000 -0.000002 1.484601 7.508898 -18.559308 0.295705 1.839402 -18.263364 0.756976 2.882224 -29.425985 -0.000000 -0.000000 -0.000000 -1.587339 -8.450121 -14.986750 0.000000 0.000000 0.000000 -28.633707 36.187736 26.024568 -0.000032 121.147175 0.000004 -0.032559 14.261424 -43.465302 27.172987 26.344572 -7.200402 12.601717 -31.646920 39.677112 -15.669718 -33.859536 -24.791280 0.000000 0.000001 0.000002 3.366409 0.236521 17.265622 0.003550 -0.182021 2.234969 0.860523 -2.699140 35.360412 0.000001 0.000000 0.000000 0.934617 -5.191281 25.473983 0.071600 -0.814361 10.048950 0.772377 -2.570575 33.443328 -0.000001 0.000000 0.000001 1.327857 -6.458139 21.018512 0.272232 -1.570452 19.667009 0.652948 -2.380050 30.678399 -0.000000 0.000003 -0.000001 -27.345426 4.967797 20.037031 38.499983 5.069385 -0.954778 -19.821556 -0.492444 -17.720007 -0.109855 -0.000001 -0.000004 0.000000 -0.000002 0.000000 -33.563707 -1.189119 -9.386457 41.195057 2.876343 -4.093188 -16.205411 -13.901055 12.853731 1.011018 0.000002 0.000005 0.000000 0.000001 -0.000000 
0.032329 32.333900 19.366570 10.969559 -4.687810 0.014455 4.985361 0.190751 -1.099412 1.454995 -0.575848 -0.227307 0.000000 0.000000 0.000000 -0.918374 -0.967314 0.822786 12.149648 -0.303947 2.434268 -28.491244 0.716115 -5.283605 0.000000 -0.000001 -0.000001 5.881364 -7.946040 20.121336 0.000000 0.000000 0.000000 -33.764398 -17.243381 -15.928126 0.000005 -124.230896 0.000009 -5.100326 -13.844758 39.465673 28.512990 -24.637889 7.851860 13.061349 30.072722 -41.232684 -17.303763 27.711713 25.495635 0.000002 0.000002 -0.000000 3.077368 -0.164138 -16.281197 0.004288 0.224184 -2.188222 1.081488 3.393050 -35.349391 0.000000 -0.000001 -0.000000 0.883465 5.514457 -22.140958 0.079769 0.964475 -9.455449 0.940438 3.185214 -32.891404 0.000000 0.000001 -0.000002 1.509839 7.560514 -18.676273 0.301358 1.856459 -18.438885 0.761234 2.889735 -29.510420 -0.000001 0.000000 -0.000002 -1.601079 -8.534191 -15.002516 0.000000 0.000000 0.000000 -28.345516 36.296868 26.002365 -0.000008 120.828860 -0.000005 -0.558096 15.208089 -43.049081 27.151416 26.352579 -7.190640 12.592150 -31.647070 39.651775 -15.638946 -33.859563 -24.740058 0.000002 0.000000 -0.000002 3.377272 0.225127 17.325632 0.003572 -0.182818 2.244909 0.860670 -2.699342 35.363356 -0.000000 -0.000001 0.000001 0.941047 -5.199274 25.607132 0.071979 -0.816525 10.075856 0.773393 -2.572082 33.465755 -0.000000 0.000001 0.000003 1.324661 -6.437255 21.117611 0.273550 -1.574124 19.714964 0.654832 -2.383223 30.723700 -0.000001 0.000003 -0.000000 -26.458835 5.314156 19.923821 36.138285 5.159192 -1.118278 -18.630241 -0.790523 -17.519054 -0.109837 -0.000002 -0.000001 -0.000000 -0.000002 -0.000000 -32.426688 -1.366772 -9.313685 39.057467 2.596840 -4.034879 -15.359618 -13.812961 12.877618 1.001003 0.000001 -0.000003 0.000000 -0.000002 0.000000 
